<?xml version="1.0" encoding="utf-8"?>
<!-- Generator: Adobe Illustrator 16.0.0, SVG Export Plug-In . SVG Version: 6.00 Build 0)  -->
<!DOCTYPE svg PUBLIC "-//W3C//DTD SVG 1.1//EN" "http://www.w3.org/Graphics/SVG/1.1/DTD/svg11.dtd">
<svg version="1.1" id="Layer_1" xmlns="http://www.w3.org/2000/svg" xmlns:xlink="http://www.w3.org/1999/xlink" x="0px" y="0px"
	 width="1024px" height="1024px" viewBox="0 0 1024 1024" enable-background="new 0 0 1024 1024" xml:space="preserve">
<g>
	<path d="M102.188,642.362c0,0,475.92-120.652,583.156-539.589c0,0,16.761-36.854,56.983-3.353l258.067,180.98
		c0,0,23.472,20.112-10.056,53.632l-70.383,77.078l-113.959-67.022c0,0-26.797-23.472-70.373,20.104
		C735.624,364.192,501.02,685.938,102.188,642.362z"/>
	<path d="M343.495,642.362c0,0,281.522-73.717,415.593-264.754c0,0,16.751-30.167,46.909,3.335l211.149,154.182
		c0,0,23.462,30.159-20.112,60.327l-97.182,50.271L343.495,642.362z"/>
	<path d="M940.068,736.209H105.54c0,0-100.542,40.224,0,130.709h827.823C933.363,866.918,879.741,799.88,940.068,736.209z"/>
	<g>
		<path d="M960.18,925.557H79.973l-4.204-3.497C21.884,877.151-3.269,830.908,1.013,784.58
			c6.577-71.168,80.606-113.409,83.756-115.157l3.428-1.925h878.678v30.167H96.354c-12.876,8.164-60.96,41.728-65.317,89.819
			c-3.141,34.702,17.005,70.99,59.921,107.913H960.18V925.557z"/>
	</g>
</g>
</svg>
